<svg width="14" height="18" viewBox="0 0 14 18" fill="none" xmlns="http://www.w3.org/2000/svg">
<path d="M7.7071 0.635987C7.51957 0.448516 7.26526 0.343201 7.0001 0.343201C6.73493 0.343201 6.48063 0.448516 6.2931 0.635987L0.636099 6.29299C0.540589 6.38523 0.464406 6.49558 0.411997 6.61758C0.359588 6.73959 0.332002 6.87081 0.330848 7.00359C0.329694 7.13637 0.354996 7.26804 0.405277 7.39094C0.455558 7.51384 0.529811 7.62549 0.623704 7.71938C0.717597 7.81327 0.829248 7.88753 0.952145 7.93781C1.07504 7.98809 1.20672 8.01339 1.3395 8.01224C1.47228 8.01108 1.6035 7.9835 1.7255 7.93109C1.84751 7.87868 1.95785 7.8025 2.0501 7.70699L6.0001 3.75699V17C6.0001 17.2652 6.10546 17.5196 6.29299 17.7071C6.48053 17.8946 6.73488 18 7.0001 18C7.26532 18 7.51967 17.8946 7.70721 17.7071C7.89474 17.5196 8.0001 17.2652 8.0001 17V3.75699L11.9501 7.70699C12.1387 7.88914 12.3913 7.98994 12.6535 7.98766C12.9157 7.98538 13.1665 7.88021 13.3519 7.69481C13.5373 7.5094 13.6425 7.25858 13.6448 6.99639C13.6471 6.73419 13.5463 6.48159 13.3641 6.29299L7.7071 0.635987Z" fill="black"/>
</svg>
