<svg width="20" height="14" viewBox="0 0 20 14" fill="none" xmlns="http://www.w3.org/2000/svg">
<path fill-rule="evenodd" clip-rule="evenodd" d="M19.1919 0.464997C19.3794 0.652525 19.4847 0.906833 19.4847 1.172C19.4847 1.43716 19.3794 1.69147 19.1919 1.879L7.94995 13.122C7.8478 13.2242 7.72651 13.3053 7.59302 13.3606C7.45953 13.4159 7.31645 13.4444 7.17195 13.4444C7.02745 13.4444 6.88437 13.4159 6.75088 13.3606C6.61739 13.3053 6.4961 13.2242 6.39395 13.122L0.807949 7.536C0.715039 7.44309 0.641338 7.33279 0.591055 7.21139C0.540773 7.09 0.514893 6.95989 0.514893 6.8285C0.514893 6.6971 0.540773 6.56699 0.591055 6.4456C0.641338 6.32421 0.715039 6.21391 0.807949 6.121C0.900859 6.02809 1.01116 5.95439 1.13255 5.9041C1.25395 5.85382 1.38405 5.82794 1.51545 5.82794C1.64684 5.82794 1.77695 5.85382 1.89834 5.9041C2.01974 5.95439 2.13004 6.02809 2.22295 6.121L7.17295 11.071L17.7769 0.464997C17.9645 0.277526 18.2188 0.172211 18.4839 0.172211C18.7491 0.172211 19.0044 0.277526 19.1919 0.464997Z" fill="white"/>
</svg>
