<svg width="258" height="253" viewBox="0 0 258 253" fill="none" xmlns="http://www.w3.org/2000/svg">
<ellipse cx="83.7364" cy="61.573" rx="83.7364" ry="61.573" transform="matrix(-0.910981 -0.412449 -0.412449 0.910981 232.477 102.762)" fill="#8ED29B"/>
<circle cx="15" cy="15" r="15" transform="matrix(-0.999738 -0.0228979 -0.0228979 0.999738 167.495 115.242)" fill="black"/>
<circle cx="15" cy="15" r="15" transform="matrix(-0.999738 -0.0228979 -0.0228979 0.999738 112.587 80.2389)" fill="black"/>
<path d="M61.2922 98.8793C53.0108 100.503 34.8832 98.4557 28.623 77.2776" stroke="black" stroke-width="2.34533" stroke-linecap="round"/>
<path d="M39.7681 66.8199C39.4589 69.9522 36.9754 76.3227 29.5143 76.7454" stroke="black" stroke-width="2.34533" stroke-linecap="round"/>
<path d="M12.782 75.2777C15.0395 77.8239 21.4413 81.6727 28.9881 76.6984" stroke="black" stroke-width="2.34533" stroke-linecap="round"/>
<path d="M23.1409 53.8808C19.2776 58.8686 14.8771 70.5071 28.1813 77.159" stroke="black" stroke-width="2.34533" stroke-linecap="round"/>
<path d="M31.2473 55.513C28.3043 58.506 23.6429 66.8997 28.5415 76.5301" stroke="black" stroke-width="2.34533" stroke-linecap="round"/>
<path d="M191.766 157.523C200.048 155.9 218.175 157.947 224.436 179.125" stroke="black" stroke-width="2.34533" stroke-linecap="round"/>
<path d="M213.291 189.583C213.6 186.45 216.083 180.08 223.544 179.657" stroke="black" stroke-width="2.34533" stroke-linecap="round"/>
<path d="M240.277 181.125C238.019 178.579 231.617 174.73 224.07 179.704" stroke="black" stroke-width="2.34533" stroke-linecap="round"/>
<path d="M229.918 202.522C233.781 197.534 238.181 185.896 224.877 179.244" stroke="black" stroke-width="2.34533" stroke-linecap="round"/>
<path d="M221.811 200.89C224.754 197.897 229.416 189.503 224.517 179.873" stroke="black" stroke-width="2.34533" stroke-linecap="round"/>
<path d="M172.637 103.709C169.604 96.0949 164.767 94.438 157.033 95.8307" stroke="black" stroke-width="2" stroke-linecap="round"/>
<path d="M121.923 76.298C120.405 71.4414 118.376 68.7711 113.016 69.6285C111.449 69.879 109.921 70.349 108.39 70.7583" stroke="black" stroke-width="2" stroke-linecap="round"/>
<path d="M114.607 132.533C109.464 134.793 107.346 135.946 105.188 130.496C104.414 128.541 103.833 126.571 103.29 124.544" stroke="black" stroke-width="2" stroke-linecap="round"/>
<path d="M107.266 150.99C104.242 147.426 101.523 144.004 96.5009 143.919" stroke="black" stroke-width="2" stroke-linecap="round"/>
<path d="M107.987 152.68C108.94 156.244 106.844 159.387 104.602 161.921C101.672 165.233 96.8946 168.642 92.2342 168.187" stroke="black" stroke-width="2" stroke-linecap="round"/>
<path d="M93.3726 145.294C91.8414 145.872 90.761 148.054 89.878 149.321C88.4716 151.339 87.6673 153.962 87.1889 156.359C86.5846 159.387 86.1623 162.576 86.9612 165.563" stroke="black" stroke-width="2" stroke-linecap="round"/>
<path d="M83.3574 157.115C83.4446 157.689 82.7836 157.933 82.4025 158.237C79.7772 160.333 77.2085 162.554 74.7384 164.828C69.0951 170.025 63.8856 175.757 60.8277 182.92C59.6522 185.674 59.34 191.352 62.291 193.196C63.8729 194.184 65.4351 194.524 67.2694 194.494" stroke="black" stroke-width="2" stroke-linecap="round"/>
<path d="M78.7349 175.024C77.9279 175.739 77.5521 177.426 77.0992 178.404C76.4788 179.745 76.7257 180.853 76.97 182.278C77.2984 184.195 77.1075 186.594 79.6132 186.352" stroke="black" stroke-width="2" stroke-linecap="round"/>
<path d="M102.148 153.972C102.018 153.487 101.96 152.791 101.701 152.359C101.507 152.034 101.199 152.438 101.042 151.848" stroke="black" stroke-width="2" stroke-linecap="round"/>
<path d="M88.4496 140.963C87.7601 139.445 86.2601 138.022 84.9958 136.986C81.8651 134.422 78.0678 132.311 74.3763 130.684C67.7433 127.76 60.6054 124.936 53.3295 124.271C50.2201 123.987 47.1363 124.381 44.076 124.863" stroke="black" stroke-width="2" stroke-linecap="round"/>
<path d="M82.8525 153.216C81.243 152.643 79.9106 152.333 78.2392 152.837C76.6123 153.327 75.5788 155.479 74.6554 156.753" stroke="black" stroke-width="2" stroke-linecap="round"/>
<path d="M73.9522 156.134C73.4552 154.276 72.9875 152.407 72.4607 150.557C71.7903 148.203 69.9799 146.175 68.8359 144.042C67.52 141.589 65.288 139.779 63.7403 137.502C61.9932 134.931 59.6421 132.623 57.2017 130.705C55.7564 129.57 54.7524 128.131 53.0083 127.315C51.479 126.599 50.1695 125.834 48.5417 125.417C47.0446 125.033 45.0274 124.34 43.5071 124.746" stroke="black" stroke-width="2" stroke-linecap="round"/>
<path d="M112.341 156.893C113.374 156.617 114.333 156.122 115.348 155.85C118.523 155.001 122.819 156.425 125.959 156.926C129.765 157.534 133.577 158.38 137.326 159.265C149.92 162.237 162.499 167.7 173.418 174.562C181.623 179.718 189.486 185.57 196.979 191.716C197.645 192.262 198.291 192.712 198.514 193.546" stroke="black" stroke-width="2" stroke-linecap="round"/>
<path d="M101.003 168.799C101.202 170.37 100.685 172.166 100.418 173.707C99.8228 177.154 99.4474 180.641 98.9254 184.101C97.9278 190.713 97.1958 197.587 94.1759 203.657C92.6896 206.644 88.1322 205.792 85.6472 205.116C82.9533 204.383 79.85 203.338 77.772 201.366C76.9798 200.614 76.6292 199.525 76.158 198.57" stroke="black" stroke-width="2" stroke-linecap="round"/>
<path d="M104.284 168.998C104.495 169.379 106.245 169.577 106.683 169.701C108.373 170.181 110.255 171.096 111.491 172.374C114.714 175.708 116.298 179.724 118.38 183.723C119.591 186.048 119.604 188.739 119.645 191.243" stroke="black" stroke-width="2" stroke-linecap="round"/>
<path d="M120.036 191.088C128.182 188.91 136.771 184.921 145.304 184.935C153.353 184.949 161.319 185.176 169.232 186.83C175.118 188.061 180.673 190.203 186.45 191.762C189.099 192.476 191.792 192.965 194.451 193.618C196.024 194.004 197.612 195.425 199.344 194.962" stroke="black" stroke-width="2" stroke-linecap="round"/>
</svg>
