<svg width="50" height="50" viewBox="0 0 50 50" fill="none" xmlns="http://www.w3.org/2000/svg">
<g clip-path="url(#clip0_55_1075)">
<path fill-rule="evenodd" clip-rule="evenodd" d="M24.9998 4.16669C36.5061 4.16669 45.8332 13.4938 45.8332 25C45.8332 36.5063 36.5061 45.8334 24.9998 45.8334C13.4936 45.8334 4.1665 36.5063 4.1665 25C4.1665 13.4938 13.4936 4.16669 24.9998 4.16669ZM24.9998 8.33335C20.5796 8.33335 16.3403 10.0893 13.2147 13.2149C10.0891 16.3405 8.33317 20.5797 8.33317 25C8.33317 29.4203 10.0891 33.6595 13.2147 36.7851C16.3403 39.9107 20.5796 41.6667 24.9998 41.6667C29.4201 41.6667 33.6593 39.9107 36.785 36.7851C39.9106 33.6595 41.6665 29.4203 41.6665 25C41.6665 20.5797 39.9106 16.3405 36.785 13.2149C33.6593 10.0893 29.4201 8.33335 24.9998 8.33335ZM25.2457 12.5C26.9769 12.5 28.4436 12.8459 29.7394 13.55C31.0103 14.2375 31.9894 15.2021 32.8436 16.2188C33.0282 16.4269 33.1692 16.6699 33.2583 16.9334C33.3475 17.1969 33.383 17.4755 33.3627 17.753C33.3424 18.0304 33.2667 18.301 33.1402 18.5487C33.0137 18.7964 32.8388 19.0163 32.626 19.1953C32.4131 19.3744 32.1665 19.509 31.9008 19.5913C31.635 19.6735 31.3555 19.7017 31.0787 19.6742C30.8019 19.6466 30.5334 19.564 30.2891 19.431C30.0448 19.298 29.8295 19.1175 29.6561 18.9C28.9623 18.0771 28.3769 17.55 27.754 17.2125C27.1561 16.8875 26.3936 16.6667 25.2457 16.6667C23.4728 16.6667 21.6873 17.6729 20.4373 19.4084L20.179 19.7917H24.9998C25.5308 19.7923 26.0416 19.9956 26.4277 20.3601C26.8138 20.7246 27.0462 21.2228 27.0773 21.7529C27.1084 22.283 26.9359 22.805 26.5951 23.2122C26.2543 23.6194 25.7709 23.8811 25.2436 23.9438L24.9998 23.9584H18.7978C18.7644 24.3046 18.7484 24.6522 18.7498 25L18.7623 25.5271L18.7978 26.0417H24.9998C25.5308 26.0423 26.0416 26.2456 26.4277 26.6101C26.8138 26.9746 27.0462 27.4728 27.0773 28.0029C27.1084 28.533 26.9359 29.055 26.5951 29.4622C26.2543 29.8694 25.7709 30.1311 25.2436 30.1938L24.9998 30.2084H20.179C21.4311 32.1771 23.3457 33.3334 25.2457 33.3334C26.3915 33.3334 27.1561 33.1125 27.754 32.7875C28.379 32.45 28.9623 31.9229 29.6561 31.1C30.0164 30.6937 30.5212 30.4441 31.0629 30.4045C31.6045 30.3649 32.1403 30.5384 32.5559 30.888C32.9715 31.2376 33.2342 31.7357 33.2879 32.2762C33.3417 32.8166 33.1822 33.3567 32.8436 33.7813C31.9894 34.7979 31.0103 35.7604 29.7394 36.45C28.4436 37.1542 26.9769 37.5 25.2457 37.5C20.9019 37.5 17.4436 34.6042 15.7394 30.6521L15.5582 30.2084H14.5832C14.0522 30.2078 13.5414 30.0044 13.1553 29.6399C12.7692 29.2754 12.5368 28.7772 12.5057 28.2471C12.4746 27.717 12.6471 27.1951 12.9879 26.7879C13.3287 26.3807 13.8121 26.119 14.3394 26.0563L14.6207 26.0417C14.5958 25.695 14.5833 25.3476 14.5832 25L14.5936 24.4792L14.6207 23.9584H14.5832C14.0522 23.9578 13.5414 23.7544 13.1553 23.3899C12.7692 23.0254 12.5368 22.5272 12.5057 21.9971C12.4746 21.467 12.6471 20.9451 12.9879 20.5379C13.3287 20.1307 13.8121 19.869 14.3394 19.8063L14.5832 19.7917H15.5582C17.1894 15.6146 20.7415 12.5 25.2457 12.5Z" fill="black"/>
</g>
<defs>
<clipPath id="clip0_55_1075">
<rect width="50" height="50" fill="white"/>
</clipPath>
</defs>
</svg>
