<svg width="30" height="30" viewBox="0 0 30 30" fill="none" xmlns="http://www.w3.org/2000/svg">
<path d="M7.89355 7.71994C7.58105 6.92244 7.59355 6.01119 7.7323 5.17744C8.68724 5.46439 9.58425 5.91713 10.3823 6.51494C10.7323 6.78244 11.191 6.86869 11.6185 6.73994C12.7153 6.41097 13.8547 6.24586 14.9998 6.24994C16.201 6.24994 17.3423 6.42494 18.3785 6.73869C18.806 6.86869 19.2648 6.78119 19.6135 6.51369C20.4112 5.91601 21.3078 5.46327 22.2623 5.17619C22.401 6.00994 22.4123 6.92119 22.1023 7.71744C21.9148 8.19744 22.0085 8.74994 22.3623 9.14244C23.2673 10.1462 23.7498 11.2999 23.7498 12.4999C23.7498 15.1424 21.2873 17.7337 17.3323 18.5224C16.3423 18.7199 15.956 19.9662 16.7135 20.6799C17.1998 21.1374 17.4998 21.7824 17.4998 22.4999V26.2499C17.4998 26.5815 17.6315 26.8994 17.8659 27.1338C18.1003 27.3682 18.4183 27.4999 18.7498 27.4999C19.0813 27.4999 19.3993 27.3682 19.6337 27.1338C19.8681 26.8994 19.9998 26.5815 19.9998 26.2499V22.4999C19.9998 21.7874 19.8498 21.1099 19.5823 20.4962C23.3535 19.1874 26.2498 16.2412 26.2498 12.4999C26.2498 10.8162 25.6448 9.26869 24.641 7.97244C24.9035 6.94744 24.8798 5.91494 24.7798 5.12244C24.691 4.41244 24.5673 3.48244 24.0673 2.92744C23.3235 2.10369 22.0923 2.58869 21.2173 2.88744C20.2782 3.20397 19.3851 3.64318 18.561 4.19369C17.3974 3.89629 16.2008 3.74719 14.9998 3.74994C13.7573 3.74994 12.5585 3.90619 11.436 4.19494C10.612 3.64443 9.71888 3.20522 8.7798 2.88869C7.9048 2.58869 6.6723 2.10369 5.92855 2.92744C5.41855 3.49244 5.3123 4.34869 5.22105 5.07619L5.2148 5.12369C5.1148 5.91744 5.0923 6.95119 5.3548 7.97744C4.3548 9.27244 3.7498 10.8174 3.7498 12.4999C3.7498 16.2399 6.64605 19.1874 10.4173 20.4962C10.1448 21.1205 10.0027 21.7938 9.9998 22.4749L9.7898 22.5174C8.89355 22.6412 8.3198 22.5299 7.9298 22.3649C6.9798 21.9624 6.4898 20.9487 5.8923 20.1737C5.5198 19.6924 4.9773 19.0912 4.1448 18.8137C3.98902 18.7618 3.82455 18.7411 3.66077 18.7528C3.497 18.7645 3.33713 18.8084 3.1903 18.8818C2.89376 19.0302 2.66831 19.2903 2.56355 19.6049C2.45879 19.9196 2.4833 20.2629 2.63169 20.5594C2.78007 20.856 3.04019 21.0814 3.3548 21.1862C4.0523 21.4187 4.5348 22.6137 4.9773 23.1437C5.44355 23.7037 6.06355 24.2887 6.9523 24.6662C7.8048 25.0287 8.80605 25.1574 9.9998 25.0112V26.2499C9.9998 26.5815 10.1315 26.8994 10.3659 27.1338C10.6003 27.3682 10.9183 27.4999 11.2498 27.4999C11.5813 27.4999 11.8993 27.3682 12.1337 27.1338C12.3681 26.8994 12.4998 26.5815 12.4998 26.2499V22.4999C12.4998 21.7824 12.7998 21.1374 13.286 20.6799C14.0448 19.9649 13.6573 18.7199 12.6673 18.5224C8.71105 17.7337 6.2498 15.1424 6.2498 12.4999C6.2498 11.3024 6.73105 10.1487 7.6348 9.14494C7.98855 8.75244 8.08105 8.19994 7.89355 7.71994Z" fill="black"/>
</svg>
