<svg width="363" height="316" viewBox="0 0 363 316" fill="none" xmlns="http://www.w3.org/2000/svg">
<ellipse cx="183.714" cy="172.573" rx="83.4934" ry="61.9596" transform="rotate(-4.78967 183.714 172.573)" fill="#8ED29B"/>
<circle cx="160.8" cy="155.503" r="15" transform="rotate(56.2288 160.8 155.503)" fill="black"/>
<circle cx="228.62" cy="126.34" r="15" transform="rotate(56.2288 228.62 126.34)" fill="black"/>
<path d="M111.216 191.909C100.557 197.539 82.2504 216.085 94.3035 245.237" stroke="black" stroke-width="3.35021" stroke-linecap="round"/>
<path d="M116.074 246.854C112.919 243.651 104.441 238.801 95.7709 245.029" stroke="black" stroke-width="3.35021" stroke-linecap="round"/>
<path d="M78.4951 261.679C78.7183 256.823 82.3774 246.8 95.2285 245.553" stroke="black" stroke-width="3.35021" stroke-linecap="round"/>
<path d="M109.212 276.157C100.442 274.082 85.1054 265.099 93.9185 245.766" stroke="black" stroke-width="3.35021" stroke-linecap="round"/>
<path d="M116.756 267.067C110.799 266.383 98.085 261.24 94.8842 246.142" stroke="black" stroke-width="3.35021" stroke-linecap="round"/>
<path d="M259.001 162.971C269.661 157.342 287.967 138.796 275.914 109.643" stroke="black" stroke-width="3.35021" stroke-linecap="round"/>
<path d="M254.144 108.026C257.299 111.23 265.776 116.079 274.447 109.852" stroke="black" stroke-width="3.35021" stroke-linecap="round"/>
<path d="M291.723 93.2021C291.499 98.0579 287.84 108.081 274.989 109.327" stroke="black" stroke-width="3.35021" stroke-linecap="round"/>
<path d="M261.006 78.7236C269.776 80.7985 285.112 89.7816 276.299 109.115" stroke="black" stroke-width="3.35021" stroke-linecap="round"/>
<path d="M253.462 87.8135C259.419 88.4977 272.133 93.6409 275.334 108.739" stroke="black" stroke-width="3.35021" stroke-linecap="round"/>
<path d="M253.866 33.4955C254.353 34.8563 254.781 36.2579 255.344 37.5868C255.567 38.1121 255.929 38.4795 256.228 38.9544C256.551 39.4666 257.107 39.9681 257.553 40.3735C258.024 40.8007 258.529 41.0159 259.164 41.0627C259.992 41.1237 260.729 40.7519 261.479 40.451C262.348 40.102 263.084 39.4772 263.759 38.8468C265.106 37.5878 266.288 36.1098 267.529 34.7446C267.703 34.5534 267.876 34.3623 268.05 34.1712C268.473 33.7051 268.675 33.325 268.865 32.7273C269.025 32.222 269.287 31.2118 268.835 30.7503C268.032 29.9296 266.861 29.3554 265.783 28.9231C264.61 28.4528 263.327 28.3036 262.157 27.7794C261.676 27.564 261.137 27.3173 260.631 27.1863C260.211 27.0778 259.785 26.8505 259.36 26.7864" stroke="black" stroke-width="2" stroke-linecap="round"/>
<path d="M252.979 33.8084C252.275 34.6414 251.566 35.4583 250.833 36.2651C250.567 36.5573 250.316 36.8349 250.099 37.1617C249.967 37.3611 250.161 37.8189 250.206 38.0281C250.319 38.5489 250.506 39.0397 250.674 39.5433C250.911 40.2514 251.236 40.8969 251.503 41.5872C251.924 42.6724 252.419 43.7261 252.763 44.84C252.962 45.4844 253.346 46.1217 253.696 46.6961C254.025 47.2349 254.414 47.8457 254.886 48.2745C255.255 48.6099 255.625 48.9453 255.994 49.2808C256.45 49.6955 257.058 49.781 257.597 50.0304C258.649 50.5164 259.701 50.0566 260.784 49.9529C261.149 49.918 261.522 49.6772 261.895 49.6093C262.45 49.508 262.967 49.1939 263.466 48.9481C264.497 48.4391 265.303 47.3082 265.841 46.3551" stroke="black" stroke-width="2" stroke-linecap="round"/>
<path d="M259.463 26.1055C260.609 25.0525 261.731 23.9881 262.777 22.8365" stroke="black" stroke-width="2" stroke-linecap="round"/>
<path d="M262.704 23.2006C263.775 22.9798 264.927 23.1317 266.015 23.1121C266.672 23.1003 267.336 23.1752 267.994 23.2128C268.687 23.2524 269.35 23.4415 270.021 23.6065C271.135 23.8806 272.403 23.8438 273.427 24.4452C274.642 25.1592 275.779 26.1334 276.821 27.08C277.539 27.7324 278.393 28.4733 278.598 29.4641C278.762 30.2547 278.74 31.1079 278.823 31.9101C278.911 32.7677 278.504 33.7032 278.184 34.475C277.769 35.4783 277.311 36.2288 276.431 36.8779" stroke="black" stroke-width="2" stroke-linecap="round"/>
<path d="M268.408 47.9258C270.825 50.0217 273.329 52.0149 275.726 54.1315C276.534 54.8456 277.389 55.4682 278.291 56.0562C278.97 56.4984 279.544 57.0547 280.229 57.4896C281.031 57.9981 281.901 58.5677 282.613 59.1941C283.047 59.5754 283.547 59.8374 283.978 60.2161C285.311 61.3875 287.073 61.9854 288.411 63.1515C289.079 63.7336 289.853 64.2814 290.587 64.777C290.714 64.8627 291.844 65.5382 291.166 65.436" stroke="black" stroke-width="2" stroke-linecap="round"/>
<path d="M276.487 39.7557C279.565 42.5518 282.466 45.4809 285.67 48.1232C287.571 49.6918 289.58 51.1059 291.405 52.764C291.972 53.2795 292.54 53.795 293.107 54.3104C293.603 54.7611 294.078 55.3034 294.658 55.6351C295.249 55.9726 295.875 56.5184 296.388 56.964C296.694 57.2297 297.028 57.4501 297.333 57.7136C297.447 57.812 298.205 58.3966 297.733 57.9679" stroke="black" stroke-width="2" stroke-linecap="round"/>
<path d="M297.605 67.2454C298.385 66.3872 299.17 65.2115 300.165 64.5475" stroke="black" stroke-width="2" stroke-linecap="round"/>
<path d="M297.763 69.3554C298.078 70.3232 298.458 71.2995 298.705 72.2863" stroke="black" stroke-width="2" stroke-linecap="round"/>
<path d="M299.455 72.4219C300.253 72.5544 301.098 72.5142 301.905 72.524C302.077 72.526 302.13 72.5329 302.261 72.4592" stroke="black" stroke-width="2" stroke-linecap="round"/>
<path d="M302.99 72.1383C303.779 71.2695 304.668 70.4165 305.322 69.4513" stroke="black" stroke-width="2" stroke-linecap="round"/>
<path d="M305.523 68.8693C305.375 67.5644 305.273 66.445 304.946 65.1769" stroke="black" stroke-width="2" stroke-linecap="round"/>
<path d="M304.886 65.1229C303.568 64.8646 302.247 64.5652 300.905 64.4551" stroke="black" stroke-width="2" stroke-linecap="round"/>
<path d="M290.508 68.4435C290.606 70.0037 290.481 71.8158 290.959 73.331C291.009 73.4911 291.027 73.6511 291.108 73.7945" stroke="black" stroke-width="2" stroke-linecap="round"/>
<path d="M292.065 75.8662C292.718 76.2328 293.55 76.5594 294.113 77.0717C294.756 77.6557 295.399 78.2396 296.041 78.8235" stroke="black" stroke-width="2" stroke-linecap="round"/>
<path d="M296.042 78.8232C296.846 78.707 297.68 78.6294 298.468 78.4368C299.229 78.251 300.002 78.1163 300.754 77.8982C300.99 77.8298 301.367 77.6096 301.621 77.6659C302.217 77.7982 302.924 77.1141 303.465 77.266" stroke="black" stroke-width="2" stroke-linecap="round"/>
<path d="M303.801 77.1352C305.005 75.8098 306.087 74.2496 307.489 73.1369C308.298 72.4942 309.118 71.873 309.928 71.2333" stroke="black" stroke-width="2" stroke-linecap="round"/>
<path d="M310.07 70.5978C309.925 68.9084 310.063 67.2357 310.46 65.6001C310.694 64.6368 310.963 63.845 311.656 63.082" stroke="black" stroke-width="2" stroke-linecap="round"/>
<path d="M311.536 62.9726C309.685 61.5414 307.791 60.1161 306.059 58.542" stroke="black" stroke-width="2" stroke-linecap="round"/>
<path d="M305.189 58.2975C303.907 58.4259 302.562 58.4531 301.277 58.3418C301.02 58.3195 300.782 58.2327 300.525 58.2347C299.868 58.2399 299.327 58.1392 298.663 58.2666" stroke="black" stroke-width="2" stroke-linecap="round"/>
<path d="M273.446 12.2855L275.432 6.51391" stroke="black" stroke-width="2" stroke-linecap="round"/>
<path d="M277.393 12.6512L281.983 4.79636" stroke="black" stroke-width="2" stroke-linecap="round"/>
<path d="M238.009 43.9853L231.84 43.1533" stroke="black" stroke-width="2" stroke-linecap="round"/>
<path d="M238.443 38.9703L233.085 37.2256" stroke="black" stroke-width="2" stroke-linecap="round"/>
<path d="M242.228 46.7279L237.573 48.9991" stroke="black" stroke-width="2" stroke-linecap="round"/>
<path d="M279.578 16.9782L283.701 11.3461" stroke="black" stroke-width="2" stroke-linecap="round"/>
<path d="M116.148 178.138C115.806 176.836 114.992 175.075 115.137 173.658C115.23 172.753 115.837 171.275 116.474 170.651C117.029 170.106 117.578 169.628 118.286 169.285C119.198 168.842 120.475 168.272 121.484 168.124C122.989 167.903 124.717 169.165 125.942 169.881C126.873 170.425 127.661 171.148 128.274 172.038C128.61 172.526 128.972 173.027 129.201 173.576C129.311 173.838 129.31 174.09 129.536 174.222" stroke="black" stroke-width="2" stroke-linecap="round"/>
<path d="M129.815 173.746C129.914 172.278 129.769 171.208 130.799 170.164C131.391 169.564 131.866 169.029 132.657 168.719C133.293 168.469 133.871 168.146 134.555 168.191" stroke="black" stroke-width="2" stroke-linecap="round"/>
<path d="M144.76 124.37C147.501 123.475 150.217 122.54 152.931 121.575" stroke="black" stroke-width="2" stroke-linecap="round"/>
<path d="M210.936 101.799L219.672 99.507" stroke="black" stroke-width="2" stroke-linecap="round"/>
<path d="M153.29 133.441C150.884 134.386 149.204 135.893 147.239 137.613C146.026 138.675 145.286 139.486 144.494 140.841C142.185 144.792 140.106 148.495 139.017 152.997C138.202 156.363 138.688 159.359 139.165 162.727C139.585 165.688 140.803 168.855 142.149 171.494C142.832 172.833 143.326 174.383 144.199 175.612C145.042 176.799 146.054 177.931 147.098 178.947C150.587 182.345 155.239 183.841 159.954 184.488C164.302 185.084 168.262 184.589 172.489 183.48C173.284 183.271 174.11 183.108 174.887 182.841C175.512 182.627 175.86 182.116 176.411 181.805C176.949 181.501 177.54 181.295 178.078 180.987C178.795 180.578 179.265 179.941 180.008 179.54C181.535 178.716 183.481 177.075 184.356 175.577C185.159 174.203 186.354 173.006 187.077 171.604C187.775 170.25 188.561 168.904 189.176 167.509C189.67 166.391 189.472 165.526 189.546 164.391C189.566 164.086 189.443 163.843 189.42 163.549C189.378 162.994 189.691 162.459 189.657 161.881C189.571 160.42 189.584 158.965 189.497 157.505C189.358 155.144 188.801 152.672 187.558 150.62C186.96 149.632 186.719 148.607 185.81 147.867C185.169 147.346 184.613 147.056 183.979 146.428C183.025 145.484 182.248 144.366 181.375 143.348C180.696 142.558 179.835 142.001 179.185 141.196C177.901 139.606 175.982 138.041 174.26 136.948C171.554 135.229 168.932 133.096 165.953 131.867C160.922 129.792 155.628 131.477 151.294 134.306" stroke="black" stroke-width="2" stroke-linecap="round"/>
<path d="M224.578 104.381C223.094 104.48 221.636 105.077 220.224 105.511C219.908 105.608 219.634 105.702 219.343 105.86C218.652 106.236 217.905 106.542 217.245 106.965C214.298 108.851 211.482 111.011 209.391 113.859C208.457 115.132 207.5 116.378 207.076 117.933C206.646 119.513 206.344 120.923 206.322 122.563C206.265 126.749 205.605 131.271 207.037 135.31C207.391 136.31 207.649 137.329 207.918 138.356C208.206 139.452 208.375 140.683 208.858 141.712C209.625 143.348 210.408 144.774 211.47 146.232C212.509 147.658 213.646 148.681 215.177 149.575C216.551 150.378 218.088 151.611 219.683 151.877C221.338 152.152 222.944 152.626 224.595 152.893C225.459 153.033 226.266 153.064 227.142 153.074C228.806 153.093 230.434 153.29 232.09 153.462C233.555 153.614 235.127 154.176 236.615 153.949C237.511 153.812 238.436 153.589 239.314 153.359C239.92 153.2 240.536 152.961 241.087 152.658C241.958 152.178 242.883 151.846 243.766 151.389C245.758 150.359 247.724 149.442 249.478 148.016C250.103 147.508 250.695 146.81 251.211 146.194C251.823 145.461 252.604 144.778 253.107 143.963C255.131 140.687 257.279 137.284 257.005 133.249C256.884 131.451 256.479 129.715 256.023 127.977C255.824 127.216 255.624 126.455 255.424 125.693C255.199 124.834 255.275 123.945 255.056 123.078C254.25 119.884 252.545 117.017 251.105 114.081C250.724 113.306 250.433 112.465 249.869 111.8C249.504 111.369 249.246 110.77 248.767 110.45C247.223 109.422 245.749 108.29 244.102 107.388C242.328 106.416 239.974 106.241 238.01 105.738C236.85 105.441 235.686 105.122 234.519 104.856C232.792 104.462 231.094 103.61 229.276 103.679C229.01 103.689 228.718 103.557 228.444 103.52C228.039 103.465 227.636 103.478 227.223 103.451C226.74 103.419 226.059 103.462 225.59 103.585C224.665 103.827 223.623 103.676 222.656 103.93" stroke="black" stroke-width="2" stroke-linecap="round"/>
<path d="M180.092 141.093C180.019 139.299 181.237 137.839 182.087 136.384C182.739 135.269 184.132 134.13 185.148 133.423C187.768 131.6 190.749 130.445 193.812 129.641C195.371 129.232 196.92 128.74 198.53 128.592C200.086 128.45 201.412 128.836 202.901 129.167C203.369 129.271 203.912 129.321 204.33 129.535C204.647 129.697 205.113 129.86 205.453 129.771" stroke="black" stroke-width="2" stroke-linecap="round"/>
<path d="M198.889 155.625C199.647 155.825 200.416 156.006 201.163 156.248C201.296 156.291 201.474 156.429 201.619 156.36C202.245 156.062 202.613 155.599 202.972 155.04C203.301 154.527 203.784 154.022 203.825 153.386" stroke="black" stroke-width="2" stroke-linecap="round"/>
</svg>
