<svg width="25" height="25" viewBox="0 0 25 25" fill="none" xmlns="http://www.w3.org/2000/svg">
<path d="M20.8333 0C21.9384 0 22.9982 0.438987 23.7796 1.22039C24.561 2.00179 25 3.0616 25 4.16667V20.8333C25 21.9384 24.561 22.9982 23.7796 23.7796C22.9982 24.561 21.9384 25 20.8333 25H4.16667C3.0616 25 2.00179 24.561 1.22039 23.7796C0.438987 22.9982 0 21.9384 0 20.8333V4.16667C0 3.0616 0.438987 2.00179 1.22039 1.22039C2.00179 0.438987 3.0616 0 4.16667 0H20.8333ZM20.8333 2.77778H4.16667C3.79831 2.77778 3.44504 2.92411 3.18457 3.18457C2.92411 3.44504 2.77778 3.79831 2.77778 4.16667V20.8333C2.77778 21.2017 2.92411 21.555 3.18457 21.8154C3.44504 22.0759 3.79831 22.2222 4.16667 22.2222H20.8333C21.2017 22.2222 21.555 22.0759 21.8154 21.8154C22.0759 21.555 22.2222 21.2017 22.2222 20.8333V4.16667C22.2222 3.79831 22.0759 3.44504 21.8154 3.18457C21.555 2.92411 21.2017 2.77778 20.8333 2.77778ZM6.94444 9.72222C7.28463 9.72227 7.61297 9.84716 7.86718 10.0732C8.1214 10.2993 8.28381 10.6108 8.32361 10.9486L8.33333 11.1111V18.0556C8.33294 18.4096 8.19739 18.75 7.95438 19.0075C7.71136 19.2649 7.37923 19.4198 7.02584 19.4405C6.67245 19.4613 6.32447 19.3463 6.05301 19.1191C5.78155 18.8919 5.60709 18.5696 5.56528 18.2181L5.55556 18.0556V11.1111C5.55556 10.7428 5.70188 10.3895 5.96235 10.129C6.22282 9.86855 6.57609 9.72222 6.94444 9.72222ZM11.1111 8.33333C11.4364 8.33328 11.7514 8.4474 12.0011 8.65578C12.2509 8.86416 12.4196 9.15359 12.4778 9.47361C12.7575 9.31205 13.0464 9.1669 13.3431 9.03889C14.2694 8.64306 15.6569 8.425 16.9097 8.81806C17.5667 9.02639 18.2264 9.41528 18.7153 10.0778C19.1528 10.6681 19.3889 11.3861 19.4361 12.1931L19.4444 12.5V18.0556C19.4441 18.4096 19.3085 18.75 19.0655 19.0075C18.8225 19.2649 18.4903 19.4198 18.137 19.4405C17.7836 19.4613 17.4356 19.3463 17.1641 19.1191C16.8927 18.8919 16.7182 18.5696 16.6764 18.2181L16.6667 18.0556V12.5C16.6667 12.0417 16.5556 11.8278 16.4833 11.7292C16.3795 11.6004 16.2367 11.5087 16.0764 11.4681C15.5931 11.3153 14.8972 11.3958 14.4347 11.5931C13.7403 11.8903 13.1042 12.3569 12.6708 12.7889L12.5 12.9722V18.0556C12.4996 18.4096 12.3641 18.75 12.121 19.0075C11.878 19.2649 11.5459 19.4198 11.1925 19.4405C10.8391 19.4613 10.4911 19.3463 10.2197 19.1191C9.94821 18.8919 9.77375 18.5696 9.73194 18.2181L9.72222 18.0556V9.72222C9.72222 9.35387 9.86855 9.0006 10.129 8.74013C10.3895 8.47966 10.7428 8.33333 11.1111 8.33333ZM6.94444 5.55556C7.3128 5.55556 7.66607 5.70188 7.92654 5.96235C8.187 6.22282 8.33333 6.57609 8.33333 6.94444C8.33333 7.3128 8.187 7.66607 7.92654 7.92654C7.66607 8.187 7.3128 8.33333 6.94444 8.33333C6.57609 8.33333 6.22282 8.187 5.96235 7.92654C5.70188 7.66607 5.55556 7.3128 5.55556 6.94444C5.55556 6.57609 5.70188 6.22282 5.96235 5.96235C6.22282 5.70188 6.57609 5.55556 6.94444 5.55556Z" fill="black"/>
</svg>
