<svg width="50" height="50" viewBox="0 0 50 50" fill="none" xmlns="http://www.w3.org/2000/svg">
<path fill-rule="evenodd" clip-rule="evenodd" d="M25 8.33331C24.1792 8.33331 23.3665 8.49497 22.6082 8.80906C21.8499 9.12315 21.1609 9.58353 20.5806 10.1639C20.0002 10.7443 19.5398 11.4333 19.2258 12.1915C18.9117 12.9498 18.75 13.7625 18.75 14.5833C18.75 15.4041 18.9117 16.2168 19.2258 16.9751C19.5398 17.7334 20.0002 18.4224 20.5806 19.0027C21.1609 19.5831 21.8499 20.0435 22.6082 20.3576C23.3665 20.6716 24.1792 20.8333 25 20.8333C26.6576 20.8333 28.2473 20.1748 29.4194 19.0027C30.5915 17.8306 31.25 16.2409 31.25 14.5833C31.25 12.9257 30.5915 11.336 29.4194 10.1639C28.2473 8.99179 26.6576 8.33331 25 8.33331ZM14.5833 14.5833C14.5837 12.6124 15.1433 10.6821 16.1969 9.01648C17.2506 7.35089 18.7552 6.0184 20.536 5.17378C22.3167 4.32916 24.3005 4.00706 26.257 4.24489C28.2135 4.48272 30.0624 5.27073 31.5889 6.51739C33.1154 7.76405 34.2569 9.4182 34.8809 11.2877C35.5048 13.1573 35.5856 15.1654 35.1138 17.079C34.642 18.9926 33.637 20.7331 32.2155 22.0983C30.794 23.4635 29.0144 24.3975 27.0833 24.7916V35.4166C27.0833 35.9692 26.8638 36.4991 26.4731 36.8898C26.0824 37.2805 25.5525 37.5 25 37.5C24.4475 37.5 23.9176 37.2805 23.5269 36.8898C23.1362 36.4991 22.9167 35.9692 22.9167 35.4166V24.7916C20.5638 24.3114 18.4492 23.0329 16.9306 21.1727C15.412 19.3124 14.5828 16.9847 14.5833 14.5833ZM19.7688 33.5416C19.8102 33.8122 19.7979 34.0883 19.7326 34.3542C19.6672 34.62 19.5502 34.8704 19.388 35.091C19.2259 35.3115 19.0219 35.498 18.7876 35.6396C18.5534 35.7813 18.2935 35.8754 18.0229 35.9166C15.3604 36.3208 13.2458 36.9354 11.8562 37.6146C9.31458 38.8583 12.2854 39.7521 13.8354 40.2354C16.6 41.1 20.5479 41.6666 25 41.6666C29.4521 41.6666 33.4 41.1 36.1646 40.2354C37.725 39.7479 40.6854 38.8604 38.1437 37.6146C36.7542 36.9354 34.6396 36.3229 31.9771 35.9166C31.7035 35.8791 31.4401 35.7875 31.2022 35.6473C30.9643 35.507 30.7566 35.3208 30.5913 35.0996C30.426 34.8784 30.3063 34.6265 30.2393 34.3586C30.1722 34.0907 30.1591 33.8121 30.2006 33.5391C30.2422 33.266 30.3377 33.004 30.4814 32.7682C30.6252 32.5324 30.8144 32.3275 31.038 32.1655C31.2617 32.0035 31.5153 31.8875 31.7842 31.8244C32.0531 31.7613 32.3318 31.7523 32.6042 31.7979C35.4958 32.2354 38.0667 32.9375 39.9771 33.8729C41.8187 34.775 43.75 36.2937 43.75 38.5416C43.75 40.2312 42.6583 41.4583 41.5958 42.2437C37.1167 45.5521 30.2833 45.8333 25 45.8333C20.2458 45.8333 15.8604 45.2333 12.5938 44.2125C9.98958 43.4 6.25 41.7958 6.25 38.5416C6.25 36.2916 8.18125 34.775 10.0229 33.875C11.9333 32.9375 14.5062 32.2375 17.3937 31.7979C17.6643 31.7564 17.9405 31.7687 18.2063 31.8341C18.4721 31.8994 18.7225 32.0165 18.9431 32.1786C19.1636 32.3407 19.3501 32.5448 19.4918 32.779C19.6334 33.0132 19.7276 33.271 19.7688 33.5416Z" fill="black"/>
</svg>
