<svg width="194" height="140" viewBox="0 0 194 140" fill="none" xmlns="http://www.w3.org/2000/svg">
<ellipse cx="92.8582" cy="79.0324" rx="52.5" ry="44" transform="rotate(11.0997 92.8582 79.0324)" fill="#378B47"/>
<path d="M55.7853 87.1377C47.3589 87.5988 29.6894 83.0609 26.4226 61.2198" stroke="black" stroke-width="2.34533" stroke-linecap="round"/>
<path d="M38.9087 52.4063C38.1687 55.4657 34.8269 61.4308 27.3792 60.8162" stroke="black" stroke-width="2.34533" stroke-linecap="round"/>
<path d="M11.0112 57.0453C12.8944 59.8797 18.7015 64.578 26.8645 60.6967" stroke="black" stroke-width="2.34533" stroke-linecap="round"/>
<path d="M24.2334 37.2892C19.7166 41.6939 13.7467 52.6109 26.0014 61.0412" stroke="black" stroke-width="2.34533" stroke-linecap="round"/>
<path d="M32.0359 40.0284C28.7067 42.585 22.9278 50.2522 26.4455 60.4682" stroke="black" stroke-width="2.34533" stroke-linecap="round"/>
<path d="M128.339 82.8496C135.725 86.9325 153.608 90.5378 166.056 72.2962" stroke="black" stroke-width="2.34533" stroke-linecap="round"/>
<path d="M158.651 58.9267C157.985 62.0031 158.398 68.8281 165.37 71.5165" stroke="black" stroke-width="2.34533" stroke-linecap="round"/>
<path d="M181.748 75.246C178.818 76.978 171.545 78.6803 165.886 71.633" stroke="black" stroke-width="2.34533" stroke-linecap="round"/>
<path d="M178.443 51.7043C180.592 57.6358 181.215 70.0629 166.513 72.3186" stroke="black" stroke-width="2.34533" stroke-linecap="round"/>
<path d="M170.226 50.7742C172.111 54.525 173.976 63.9432 166.362 71.6096" stroke="black" stroke-width="2.34533" stroke-linecap="round"/>
<circle cx="77.2988" cy="65.386" r="15" transform="rotate(-5.18493 77.2988 65.386)" fill="black"/>
<circle cx="118.034" cy="49.9394" r="15" transform="rotate(-5.18493 118.034 49.9394)" fill="black"/>
<path d="M58.6484 39.518C59.5004 35.1752 61.7646 31.3467 66.8132 32.3372" stroke="black" stroke-width="2" stroke-linecap="round"/>
<path d="M115.938 26.4361C117.548 25.3539 118.723 23.3614 120.889 23.3915C122.925 23.4197 125.121 24.1841 127.113 24.5749" stroke="black" stroke-width="2" stroke-linecap="round"/>
<path d="M105.86 90.0782C105.07 89.9232 104.087 90.666 103.448 91.0421C102.317 91.7081 101.21 93.2079 101.05 94.5403C100.912 95.6863 102.531 95.8644 103.304 95.8975C105.192 95.9786 107.632 95.1514 109.081 93.9491C109.797 93.3547 110.932 92.1003 110.414 91.0727C110.115 90.4802 109.364 89.9464 108.715 89.8301C108.087 89.7175 107.331 89.7644 106.704 89.8958C106.163 90.0091 105.474 89.9994 105.005 90.3147" stroke="black" stroke-width="2" stroke-linecap="round"/>
<path d="M91.1567 35.1639C89.2364 34.7872 87.4352 30.5962 86.8721 28.9179C85.6383 25.2413 87.5917 21.2425 90.4229 18.9954C93.1396 16.8393 95.9145 14.916 99.5207 15.462C101.62 15.7799 102.939 17.6494 103.432 19.6994C104.138 22.6353 102.172 26.2086 98.7394 25.6663C97.2075 25.4242 96.4018 24.9058 96.1568 23.2764C95.9959 22.2073 97.2381 20.6638 98.3527 20.8824" stroke="black" stroke-width="2" stroke-linecap="round"/>
</svg>
