<svg width="50" height="50" viewBox="0 0 50 50" fill="none" xmlns="http://www.w3.org/2000/svg">
<path d="M39.5833 6.25C40.6884 6.25 41.7482 6.68899 42.5296 7.47039C43.311 8.25179 43.75 9.3116 43.75 10.4167V31.25C43.75 32.3551 43.311 33.4149 42.5296 34.1963C41.7482 34.9777 40.6884 35.4167 39.5833 35.4167H31.3167C31.3958 36.5521 31.5354 37.4208 31.6917 38.0833L31.8271 38.5979L31.9646 39.0187L32.0312 39.1958L32.1604 39.4896L32.275 39.7083L32.3687 39.8583L32.4562 39.975C33.3854 40.6917 33.3396 41.7667 33.1646 42.3C32.9833 42.8458 32.3687 43.75 31.1625 43.75H18.8375C17.6312 43.75 17.0167 42.8458 16.8375 42.3C16.6604 41.7667 16.6146 40.6917 17.5437 39.975L17.6333 39.8583L17.7271 39.7083L17.8396 39.4896L17.9688 39.1979C18.2354 38.5292 18.5479 37.3625 18.6833 35.4167H10.4167C9.3116 35.4167 8.25179 34.9777 7.47039 34.1963C6.68899 33.4149 6.25 32.3551 6.25 31.25V10.4167C6.25 9.3116 6.68899 8.25179 7.47039 7.47039C8.25179 6.68899 9.3116 6.25 10.4167 6.25H39.5833ZM27.1437 35.4167H22.8542C22.7931 36.6786 22.6174 37.9324 22.3292 39.1625L22.2208 39.5833H27.775C27.4658 38.425 27.2683 37.2397 27.1854 36.0438L27.1437 35.4167ZM39.5833 29.1667H10.4167V31.25H39.5833V29.1667ZM39.5833 10.4167H10.4167V25H39.5833V10.4167Z" fill="black"/>
</svg>
