<svg width="50" height="49" viewBox="0 0 50 49" fill="none" xmlns="http://www.w3.org/2000/svg">
<path fill-rule="evenodd" clip-rule="evenodd" d="M15.7961 30.4223C25.4248 38.9834 34.3474 39.9208 36.9668 40.0076C40.1322 40.11 43.3627 37.8122 44.76 35.4588C42.5313 33.1343 39.6288 31.3308 36.451 29.3758C34.5753 31.0413 32.2639 34.1362 29.1862 33.0274C27.4357 32.4017 23.1134 30.6316 19.337 27.2718C15.5607 23.9119 13.5698 20.0711 12.8611 18.517C11.614 15.7761 15.1049 13.7165 16.9806 12.0488C14.7818 9.17659 12.7885 6.52923 10.1791 4.64779C7.49452 5.89466 4.89513 8.74464 5.01283 11.5969C5.11049 13.9258 6.16478 21.859 15.7961 30.4223ZM36.7815 44.4585C33.1754 44.3405 22.9557 43.0847 12.2526 33.5707C1.55198 24.0544 0.142095 14.9701 0.0068666 11.7616C-0.193472 6.87212 4.01865 2.12289 8.88437 0.268175C9.47031 0.0432195 10.112 -0.0424277 10.7463 0.0196373C11.3807 0.0817023 11.9861 0.289347 12.503 0.622196C16.5298 3.23394 19.307 7.19051 21.6935 10.2899C22.19 10.9343 22.4174 11.7129 22.3365 12.4907C22.2555 13.2685 21.8713 13.9967 21.2503 14.5493L17.8545 17.5707C18.6434 19.1181 20.2486 21.7855 22.878 24.1234C25.5075 26.4613 28.5075 27.8885 30.2505 28.5899L33.6437 25.5707C34.2668 25.0162 35.0894 24.6742 35.9675 24.6046C36.8456 24.535 37.7233 24.7422 38.4468 25.1899C42.0029 27.3809 46.1799 29.8145 49.2251 33.2812C49.6298 33.7441 49.8873 34.2952 49.9705 34.8768C50.0538 35.4585 49.9598 36.0493 49.6984 36.5876C47.6023 40.9361 42.2984 44.6388 36.7815 44.4585Z" fill="black"/>
</svg>
