<svg width="383" height="369" viewBox="0 0 383 369" fill="none" xmlns="http://www.w3.org/2000/svg">
<ellipse cx="180.886" cy="178.554" rx="83.3734" ry="87.189" transform="rotate(9.90971 180.886 178.554)" fill="#378B47"/>
<circle cx="144.633" cy="161.75" r="15" transform="rotate(70.9282 144.633 161.75)" fill="black"/>
<circle cx="210.996" cy="126.481" r="15" transform="rotate(70.9282 210.996 126.481)" fill="black"/>
<path d="M134.834 230.668C123.095 233.408 100.682 246.702 104.943 277.959" stroke="black" stroke-width="3.35021" stroke-linecap="round"/>
<path d="M125.592 285.047C123.353 281.148 116.383 274.306 106.416 278.129" stroke="black" stroke-width="3.35021" stroke-linecap="round"/>
<path d="M85.4807 289.85C86.9287 285.21 93.0113 276.444 105.758 278.499" stroke="black" stroke-width="3.35021" stroke-linecap="round"/>
<path d="M111.518 311.65C103.562 307.417 91.0065 294.837 104.437 278.372" stroke="black" stroke-width="3.35021" stroke-linecap="round"/>
<path d="M121.121 304.771C115.533 302.597 104.54 294.397 105.275 278.98" stroke="black" stroke-width="3.35021" stroke-linecap="round"/>
<path d="M249.925 146.533C261.664 143.793 284.078 130.499 279.816 99.2416" stroke="black" stroke-width="3.35021" stroke-linecap="round"/>
<path d="M259.168 92.1531C261.407 96.0522 268.377 102.894 278.343 99.071" stroke="black" stroke-width="3.35021" stroke-linecap="round"/>
<path d="M299.279 87.3498C297.831 91.99 291.748 100.757 279.001 98.7013" stroke="black" stroke-width="3.35021" stroke-linecap="round"/>
<path d="M273.241 65.5507C281.198 69.783 293.753 82.3637 280.322 98.8281" stroke="black" stroke-width="3.35021" stroke-linecap="round"/>
<path d="M263.638 72.4294C269.227 74.6028 280.219 82.8037 279.484 98.2202" stroke="black" stroke-width="3.35021" stroke-linecap="round"/>
<path d="M118.702 137.293C130.516 135.367 142.137 134.468 154.094 133.92" stroke="black" stroke-width="2" stroke-linecap="round"/>
<path d="M181.381 113.898C184.341 105.198 186.906 92.4539 193.535 85.5595" stroke="black" stroke-width="2" stroke-linecap="round"/>
<path d="M162.578 208.015C165.72 207.855 168.283 211.225 171.616 211.201C173.57 211.186 175.314 210.029 176.927 209.07C181.756 206.201 186.415 203.085 191.354 200.396C201.572 194.831 212.182 189.82 223.017 185.583" stroke="black" stroke-width="2" stroke-linecap="round"/>
<path d="M201.632 233.71C203.414 232.235 204.596 229.924 206.154 228.225C208.926 225.203 214.435 224.261 218.357 224.247" stroke="black" stroke-width="2" stroke-linecap="round"/>
<path d="M220.223 226.456C220.449 226.475 220.625 226.321 220.844 226.463C221.104 226.632 221.14 227.108 221.382 227.356C221.914 227.898 222.251 228.88 222.562 229.57C222.914 230.351 223.37 231.025 223.499 231.892C223.714 233.341 223.87 234.553 223.096 235.869C222.808 236.357 222.385 236.916 221.929 237.262C221.536 237.562 221.048 237.674 220.748 238.063" stroke="black" stroke-width="2" stroke-linecap="round"/>
<path d="M201.954 236.883C201.515 236.956 201.295 238.613 201.315 238.97C201.398 240.396 202.313 241.978 203.383 242.882C204.65 243.953 206.314 244.699 207.913 245.099C209.388 245.467 210.933 244.749 212.084 243.885" stroke="black" stroke-width="2" stroke-linecap="round"/>
<path d="M211.228 234.72C211.696 232.335 213.312 231.138 215.669 230.872" stroke="black" stroke-width="2" stroke-linecap="round"/>
<path d="M198.237 237.039C198.205 236.428 192.743 236.294 192.295 236.25C187.815 235.81 183.038 235.615 179.015 237.954C176.264 239.554 172.45 243.107 173.466 246.78" stroke="black" stroke-width="2" stroke-linecap="round"/>
<path d="M222.395 222.9C222.717 220.006 223.041 217.301 225.428 215.335C229.635 211.87 234.434 209.689 239.789 208.664C242.029 208.235 244.429 207.923 246.71 208.219C247.096 208.27 247.341 208.307 247.632 208.531" stroke="black" stroke-width="2" stroke-linecap="round"/>
<path d="M173.505 249.589C172.968 252.324 173.036 255.176 173.541 257.921C174.028 260.566 175.23 263.3 176.718 265.533C179.166 269.206 182.704 270.56 186.643 272.077" stroke="black" stroke-width="2" stroke-linecap="round"/>
<path d="M192.285 270.382C192.282 269.474 192.008 268.577 192.009 267.657C192.009 266.006 192.049 264.237 192.501 262.64C193.949 257.522 198.82 252.329 204.222 251.634" stroke="black" stroke-width="2" stroke-linecap="round"/>
<path d="M207.232 252.077C206.635 255.123 206.348 258.401 204.831 261.143C203.607 263.355 202.123 265.375 200.242 267.076C197.912 269.183 194.95 270.605 192.235 272.142" stroke="black" stroke-width="2" stroke-linecap="round"/>
<path d="M249.544 211.561C250.692 211.876 251.681 213.271 252.345 214.159C254.214 216.659 255.732 219.722 256.379 222.792C256.789 224.738 256.663 226.63 256.455 228.583C256.4 229.104 256.446 229.849 256.056 230.242" stroke="black" stroke-width="2" stroke-linecap="round"/>
<path d="M253.591 231.528C250.128 228.724 245.965 226.962 241.443 227.006C238.094 227.039 234.657 228.778 232.059 230.777C230.815 231.735 229.687 232.694 228.607 233.837C228.248 234.217 228.099 234.423 228.002 234.914" stroke="black" stroke-width="2" stroke-linecap="round"/>
<path d="M227.22 238.153C228.349 238.409 229.395 238.875 230.549 239.101C234.238 239.824 237.795 239.636 241.514 239.253C244.363 238.96 246.744 237.769 249.391 236.816C250.519 236.41 252.112 235.92 252.666 234.739" stroke="black" stroke-width="2" stroke-linecap="round"/>
</svg>
