<svg width="30" height="30" viewBox="0 0 30 30" fill="none" xmlns="http://www.w3.org/2000/svg">
<path fill-rule="evenodd" clip-rule="evenodd" d="M13.1249 2.5C11.4307 2.50014 9.76103 2.90546 8.25527 3.68212C6.74951 4.45878 5.45132 5.58427 4.469 6.96469C3.48667 8.34511 2.84871 9.94043 2.60834 11.6176C2.36796 13.2947 2.53214 15.005 3.08717 16.6057C3.64221 18.2065 4.57201 19.6513 5.799 20.8197C7.02598 21.988 8.51458 22.846 10.1406 23.322C11.7666 23.798 13.4829 23.8783 15.1462 23.5561C16.8096 23.234 18.3718 22.5187 19.7024 21.47L24.2674 26.035C24.5032 26.2627 24.819 26.3887 25.1467 26.3858C25.4744 26.383 25.788 26.2515 26.0197 26.0198C26.2515 25.788 26.3829 25.4745 26.3858 25.1468C26.3886 24.819 26.2626 24.5033 26.0349 24.2675L21.4699 19.7025C22.7049 18.1358 23.4739 16.253 23.6888 14.2697C23.9037 12.2863 23.5559 10.2825 22.6852 8.48762C21.8145 6.69271 20.4561 5.1792 18.7653 4.12029C17.0746 3.06138 15.1199 2.49987 13.1249 2.5ZM4.99995 13.125C4.99995 10.9701 5.85597 8.90349 7.37971 7.37976C8.90344 5.85602 10.9701 5 13.1249 5C15.2798 5 17.3465 5.85602 18.8702 7.37976C20.3939 8.90349 21.2499 10.9701 21.2499 13.125C21.2499 15.2799 20.3939 17.3465 18.8702 18.8702C17.3465 20.394 15.2798 21.25 13.1249 21.25C10.9701 21.25 8.90344 20.394 7.37971 18.8702C5.85597 17.3465 4.99995 15.2799 4.99995 13.125Z" fill="black"/>
</svg>
