<svg width="30" height="30" viewBox="0 0 30 30" fill="none" xmlns="http://www.w3.org/2000/svg">
<path fill-rule="evenodd" clip-rule="evenodd" d="M22.2714 8.73625C21.8302 8.10125 20.6502 7.20875 18.7389 7.59375C17.6239 7.8175 16.9577 8.36875 16.5339 9.09625C16.0827 9.87125 15.8639 10.925 15.8639 12.1513C15.8639 12.4828 15.7322 12.8007 15.4978 13.0351C15.2634 13.2696 14.9454 13.4013 14.6139 13.4013C11.6564 13.4013 8.84143 12.5225 6.47268 10.1463C6.29363 11.1103 6.22319 12.0915 6.26268 13.0713C6.32893 14.4288 6.65268 15.79 7.42143 16.9563C8.17768 18.1025 9.42143 19.1525 11.5014 19.8125C11.7052 19.8772 11.8891 19.993 12.0353 20.149C12.1816 20.305 12.2854 20.4959 12.3368 20.7034C12.3882 20.911 12.3855 21.1282 12.329 21.3344C12.2725 21.5407 12.164 21.7289 12.0139 21.8813C11.3479 22.5648 10.5927 23.1556 9.76893 23.6375C11.0939 23.775 12.3714 23.785 13.5564 23.6775C15.9564 23.46 17.8677 22.7738 19.0627 21.8025C21.5789 19.7625 22.9252 16.72 22.6752 11.6225C22.6327 10.785 23.4414 9.88125 23.8314 9.195C23.2427 9.305 22.6527 9.285 22.2714 8.73625ZM5.74268 6.23C5.96899 6.2037 6.19819 6.23975 6.40551 6.33427C6.61282 6.42878 6.79035 6.57816 6.91893 6.76625C8.76393 9.465 10.9789 10.5875 13.4377 10.8425C13.5577 9.79125 13.8414 8.7525 14.3752 7.8375C15.1577 6.495 16.4302 5.5075 18.2477 5.1425C20.7602 4.6375 22.6727 5.5475 23.7814 6.66125L26.0214 6.2425C26.2558 6.19858 26.4979 6.22263 26.7191 6.31181C26.9403 6.40099 27.1313 6.55158 27.2697 6.74581C27.4081 6.94004 27.488 7.1698 27.5 7.40798C27.5121 7.64615 27.4558 7.8828 27.3377 8.09L25.1877 11.8675C25.3839 17.3188 23.8689 21.1238 20.6389 23.745C18.9264 25.135 16.4739 25.9238 13.7827 26.1675C11.0702 26.4125 8.00393 26.1163 4.95643 25.2263C4.69604 25.1503 4.46743 24.9917 4.30508 24.7744C4.14274 24.5571 4.05548 24.2929 4.05647 24.0217C4.05745 23.7505 4.14664 23.4869 4.31056 23.2708C4.47448 23.0547 4.70425 22.8978 4.96518 22.8238C6.49768 22.3875 7.66518 22.0113 8.71893 21.3525C7.22018 20.5575 6.11643 19.5175 5.33518 18.3325C4.25018 16.685 3.84768 14.8475 3.76768 13.1913C3.68768 11.535 3.92643 10 4.17893 8.89375C4.32268 8.2625 4.49018 7.63 4.72143 7.025C4.803 6.81174 4.94142 6.62489 5.12168 6.48474C5.30194 6.34459 5.51589 6.25649 5.74268 6.23Z" fill="black"/>
</svg>
